<?xml version="1.0" encoding="UTF-8" standalone="no"?>
<svg
   xmlns:dc="http://purl.org/dc/elements/1.1/"
   xmlns:cc="http://creativecommons.org/ns#"
   xmlns:rdf="http://www.w3.org/1999/02/22-rdf-syntax-ns#"
   xmlns:svg="http://www.w3.org/2000/svg"
   xmlns="http://www.w3.org/2000/svg"
   xmlns:xlink="http://www.w3.org/1999/xlink"
   xmlns:sodipodi="http://sodipodi.sourceforge.net/DTD/sodipodi-0.dtd"
   xmlns:inkscape="http://www.inkscape.org/namespaces/inkscape"
   inkscape:export-ydpi="95.699997"
   inkscape:export-xdpi="95.699997"
   inkscape:export-filename="C:\Users\HP\Desktop\Multimedija\logo.png"
   sodipodi:docname="logo.svg"
   inkscape:version="1.0 (4035a4fb49, 2020-05-01)"
   id="svg8"
   version="1.1"
   viewBox="0 0 210 297"
   height="297mm"
   width="210mm">
  <defs
     id="defs2">
    <rect
       id="rect907"
       height="32.883932"
       width="186.34226"
       y="97.139877"
       x="81.64286" />
    <filter
       height="1.0000027"
       y="-1.3363636e-06"
       width="1.0000022"
       x="-1.0888889e-06"
       id="filter853"
       style="color-interpolation-filters:sRGB"
       inkscape:collect="always">
      <feGaussianBlur
         id="feGaussianBlur855"
         stdDeviation="2.3151042e-05"
         inkscape:collect="always" />
    </filter>
  </defs>
  <sodipodi:namedview
     inkscape:window-maximized="1"
     inkscape:window-y="-8"
     inkscape:window-x="-8"
     inkscape:window-height="715"
     inkscape:window-width="1366"
     inkscape:object-nodes="true"
     showgrid="false"
     inkscape:document-rotation="0"
     inkscape:current-layer="layer1"
     inkscape:document-units="mm"
     inkscape:cy="323.46258"
     inkscape:cx="500.04406"
     inkscape:zoom="0.7"
     inkscape:pageshadow="2"
     inkscape:pageopacity="0.0"
     borderopacity="1.0"
     bordercolor="#666666"
     pagecolor="#ffffff"
     id="base" />
  <metadata
     id="metadata5">
    <rdf:RDF>
      <cc:Work
         rdf:about="">
        <dc:format>image/svg+xml</dc:format>
        <dc:type
           rdf:resource="http://purl.org/dc/dcmitype/StillImage" />
        <dc:title></dc:title>
      </cc:Work>
    </rdf:RDF>
  </metadata>
  <g
     id="layer1"
     inkscape:groupmode="layer"
     inkscape:label="Sloj 1">
    <g
       id="g940">
      <rect
         style="opacity:1;fill:#000000;fill-opacity:1;stroke:#000000;stroke-width:1.9;stroke-miterlimit:4;stroke-dasharray:none;stroke-dashoffset:0;stroke-opacity:1;filter:url(#filter853);stroke-linejoin:round"
         id="rect837"
         width="51.026787"
         height="41.577381"
         x="81.64286"
         y="55.5625"
         ry="5.2916665"
         inkscape:transform-center-x="19.276786"
         inkscape:transform-center-y="0.37797619" />
      <ellipse
         style="opacity:1;fill:#ffffff;fill-opacity:1;stroke:#000000;stroke-width:1.93873;stroke-miterlimit:4;stroke-dasharray:none;stroke-dashoffset:0;stroke-opacity:1"
         id="path833"
         cx="106.96727"
         cy="59.342258"
         rx="24.927061"
         ry="13.587776" />
      <path
         style="opacity:1;fill:#008000;fill-opacity:1;stroke:#000000;stroke-width:1.9;stroke-linejoin:round;stroke-miterlimit:4;stroke-dasharray:none;stroke-dashoffset:0;stroke-opacity:1"
         id="path883"
         d="m 85.648344,80.644962 c 0.979045,-0.03322 1.954567,-0.05023 2.926358,0.08185 1.302707,0.309724 2.551453,0.812144 3.796217,1.29876 0.921078,0.487947 1.788245,1.049279 2.78184,1.381286 0.518147,0.128344 0.264292,0.07924 0.760659,0.151914 0,0 4.518102,-3.26848 4.518102,-3.26848 v 0 c -0.442728,0.0546 -0.21089,0.05546 -0.695209,-0.02106 -1.021834,-0.244772 -1.913575,-0.76222 -2.807735,-1.302711 -1.271667,-0.49495 -2.547853,-0.985379 -3.849677,-1.393608 -0.960442,-0.207033 -1.913879,-0.232878 -2.894168,-0.223821 0,0 -4.536387,3.295877 -4.536387,3.295877 z" />
      <path
         style="opacity:1;fill:#008000;fill-opacity:1;stroke:#000000;stroke-width:1.9;stroke-linejoin:round;stroke-miterlimit:4;stroke-dasharray:none;stroke-dashoffset:0;stroke-opacity:1"
         id="path885"
         d="m 113.61858,80.266986 c 1.17949,-0.08049 2.31417,0.141552 3.40453,0.575601 1.3126,0.547629 2.2287,1.563066 3.09911,2.645722 0.17314,0.218573 0.34628,0.437148 0.51942,0.655723 0,0 4.67221,-2.783724 4.67221,-2.783724 v 0 c -0.16954,-0.22215 -0.33908,-0.444299 -0.50862,-0.666448 -0.90356,-1.16781 -1.84496,-2.275338 -3.22905,-2.887282 -1.08928,-0.491863 -2.21556,-0.82251 -3.42121,-0.835469 0,0 -4.53639,3.295877 -4.53639,3.295877 z" />
      <path
         style="opacity:1;fill:#008000;fill-opacity:1;stroke:#000000;stroke-width:1.9;stroke-linejoin:round;stroke-miterlimit:4;stroke-dasharray:none;stroke-dashoffset:0;stroke-opacity:1"
         id="path887"
         d="m 101.55681,88.581324 c 1.04886,-0.319701 2.07557,-0.588166 3.17741,-0.511979 1.9327,0.406725 3.5527,1.636061 5.12577,2.765904 0,0 4.54122,-2.891917 4.54122,-2.891917 v 0 c -1.64254,-1.13003 -3.26602,-2.420557 -5.18401,-3.037388 -0.22777,-0.04634 -0.45204,-0.11576 -0.6833,-0.139012 -0.842,-0.08466 -1.71424,0.189048 -2.50763,0.430363 0,0 -4.46946,3.384029 -4.46946,3.384029 z" />
      <path
         style="opacity:1;fill:#008000;fill-opacity:1;stroke:#000000;stroke-width:1.9;stroke-linejoin:round;stroke-miterlimit:4;stroke-dasharray:none;stroke-dashoffset:0;stroke-opacity:1"
         id="path889"
         d="m 84.367927,91.970615 c 1.178171,0.69101 2.269644,1.492245 3.284437,2.40369 0.795941,0.7571 0.417446,0.370826 1.137859,1.156483 0,0 4.656802,-2.827954 4.656802,-2.827954 v 0 c -0.748393,-0.806545 -0.363196,-0.407263 -1.156407,-1.197062 -0.993409,-0.937972 -2.09202,-1.71658 -3.183752,-2.532497 0,0 -4.738939,2.99734 -4.738939,2.99734 z" />
      <path
         style="opacity:1;fill:#008000;fill-opacity:1;stroke:#000000;stroke-width:1.9;stroke-linejoin:round;stroke-miterlimit:4;stroke-dasharray:none;stroke-dashoffset:0;stroke-opacity:1"
         id="path891"
         d="m 119.63462,91.228062 c 0.99918,0.182711 1.93353,0.588952 2.86849,0.970294 0.74513,0.338259 1.39278,0.849479 1.91266,1.477195 0,0 4.75665,-2.855511 4.75665,-2.855511 v 0 c -0.57577,-0.688832 -1.28563,-1.273339 -2.08845,-1.679715 -0.9384,-0.404026 -1.88156,-0.792369 -2.8498,-1.117251 0,0 -4.59955,3.204988 -4.59955,3.204988 z" />
      <ellipse
         style="opacity:1;fill:#ff6600;fill-opacity:1;stroke:#000000;stroke-width:2.24934;stroke-linejoin:round;stroke-miterlimit:4;stroke-dasharray:none;stroke-dashoffset:0;stroke-opacity:1"
         id="path901"
         cx="107.15625"
         cy="57.641365"
         rx="11.353606"
         ry="4.550036" />
      <ellipse
         style="opacity:1;fill:none;fill-opacity:1;stroke:#000000;stroke-width:6.92513;stroke-linejoin:round;stroke-miterlimit:4;stroke-dasharray:none;stroke-dashoffset:0;stroke-opacity:1"
         id="path917"
         cx="-107.15626"
         cy="71.626488"
         rx="50.483051"
         ry="49.349117"
         transform="scale(-1,1)" />
      <text
         xml:space="preserve"
         style="font-size:10.5833px;line-height:1.25;font-family:sans-serif;text-align:center;letter-spacing:0px;word-spacing:0px;text-anchor:middle;stroke-width:0.264583"
         id="text923"
         transform="matrix(0.04590971,1.0653233,-0.994231,0.04284601,172.47794,-56.278975)"
         inkscape:transform-center-x="-1.65945"
         inkscape:transform-center-y="37.394611"><textPath
           xlink:href="#path917"
           startOffset="50%"
           id="textPath925"><tspan
             style="font-style:normal;font-variant:normal;font-weight:normal;font-stretch:normal;font-size:10.5833px;font-family:'Bradley Hand ITC';-inkscape-font-specification:'Bradley Hand ITC, Normal';font-variant-ligatures:normal;font-variant-caps:normal;font-variant-numeric:normal;font-variant-east-asian:normal;stroke-width:0.264583"
             id="tspan921">The little sushi place</tspan></textPath></text>
    </g>
  </g>
</svg>
